<svg xmlns="http://www.w3.org/2000/svg" xmlns:xlink="http://www.w3.org/1999/xlink" aria-hidden="true" role="img" class="iconify iconify--logos" width="31.88" height="32" preserveAspectRatio="xMidYMid meet" viewBox="0 0 256 257"><defs><linearGradient id="IconifyId1813088fe1fbc01fb466" x1="-.828%" x2="57.636%" y1="7.652%" y2="78.411%"><stop offset="0%" stop-color="#41D1FF"></stop><stop offset="100%" stop-color="#BD34FE"></stop></linearGradient><linearGradient id="IconifyId1813088fe1fbc01fb467" x1="43.376%" x2="50.316%" y1="2.242%" y2="89.03%"><stop offset="0%" stop-color="#FFBD4F"></stop><stop offset="100%" stop-color="#FF980E"></stop></linearGradient></defs><path fill="url(#IconifyId1813088fe1fbc01fb466)" d="M255.153 37.938L134.897 252.976c-2.483 4.44-8.862 4.466-11.382.048L.875 37.958c-2.746-4.814 1.371-10.646 6.827-9.914l37.985 5.695c2.328.35 4.926.207 7.163-.914l60.576-30.263c2.538-1.268 3.803-4.044 3.803-6.412v-28.94c0-2.377 1.265-5.198 3.799-6.425l60.576-30.264c2.278-1.139 4.867-1.25 7.189-.878l37.986 5.694c5.438.816 9.574 5.1 6.833 9.902Z"></path><path fill="url(#IconifyId1813088fe1fbc01fb467)" d="M185.432.063L96.44 17.501a8.544 8.544 0 0 0-5.848 2.75L45.994 62.37a8.754 8.754 0 0 0-1.334 12.29l14.518 14.518a8.754 8.754 0 0 0 12.29-1.334l42.11-42.11a8.754 8.754 0 0 0 2.75-5.848l17.452-88.992c1.16-5.908-2.65-11.75-8.558-12.91Z"></path></svg>